<svg xmlns="http://www.w3.org/2000/svg" width="25" height="25" viewBox="0 0 25 25">
  <path fill="#777" d="M17.8673528,15.7232704 L16.7381361,15.7232704 L16.3379074,15.3373356 C17.7387078,13.707833 18.5820469,11.5923385 18.5820469,9.29102344 C18.5820469,4.15951973 14.4225272,0 9.29102344,0 C4.15951973,0 0,4.15951973 0,9.29102344 C0,14.4225272 4.15951973,18.5820469 9.29102344,18.5820469 C11.5923385,18.5820469 13.707833,17.7387078 15.3373356,16.3379074 L15.7232704,16.7381361 L15.7232704,17.8673528 L22.8702115,25 L25,22.8702115 L17.8673528,15.7232704 L17.8673528,15.7232704 Z M9.29102344,15.7232704 C5.73184677,15.7232704 2.85877644,12.8502001 2.85877644,9.29102344 C2.85877644,5.73184677 5.73184677,2.85877644 9.29102344,2.85877644 C12.8502001,2.85877644 15.7232704,5.73184677 15.7232704,9.29102344 C15.7232704,12.8502001 12.8502001,15.7232704 9.29102344,15.7232704 Z"/>
</svg>
