<svg xmlns="http://www.w3.org/2000/svg" xml:space="preserve" height="425.68px" width="247.28px" y="0px" x="0px" xmlns:xlink="http://www.w3.org/1999/xlink" viewbox="0 0 247.283 425.68">
<path d="m58.428 300.41c-1.084 0-2.153-0.253-3.124-0.736-25.575-12.75-55.303-60.58-55.304-103.13 0-25.73 7.81-50.403 22.585-71.35 13.499-19.138 31.832-33.878 53.24-42.861v-38.848c0-3.866 3.134-7 7-7s7 3.134 7 7v43.601c0 2.92-1.812 5.533-4.547 6.556-42.633 15.952-71.278 57.302-71.278 102.9 0.001 36.255 24.904 78.022 46.152 89.865 9.023-0.027 37.674-0.24 65.447-0.445 27.344-0.201 53.243-0.394 60.381-0.412 15.021-4.866 47.304-51.812 47.304-89.006 0-45.596-28.646-86.949-71.277-102.9-2.733-1.023-4.547-3.636-4.547-6.556v-43.603c0-3.866 3.134-7 7-7s7 3.134 7 7v38.848c21.407 8.982 39.741 23.723 53.239 42.861 14.775 20.947 22.585 45.619 22.585 71.35 0 19.203-7.472 42.802-20.496 64.748-4.681 7.885-21.267 33.932-38.185 38.061-0.543 0.132-1.101 0.199-1.658 0.199-5.346 0-32.496 0.199-61.241 0.412-29.931 0.22-60.885 0.45-67.272 0.45z" fill="#1e1621"/>
<path d="m23.538 199.71c0 31.495 14.725 59.549 37.665 77.655 38.334 0 91.465-0.132 122.58-0.132 22.846-18.108 37.499-46.104 37.499-77.523-20.76-3.519-19.016 11.783-57.719 10.024-54.55-2.48-140.02-64.63-140.02-10.02z" fill="#ea444e"/>
<g fill="#b3d8c2">
<circle cy="99.345" cx="126.87" r="13.887"/>
<circle cy="130.29" cx="100.96" r="11.085"/>
<circle cy="141.37" cx="129.73" r="8.652"/>
<circle cy="114.87" cx="148.67" r="4.333"/>
</g>
<path d="m82.276 186.4c123.88-52.137 139.01 13.309 139.01 13.309s-57.05 34.95-139.01-13.31z" fill="#451613"/>
<path d="m182.89 41.626c0 3.85-3.15 7-7 7h-104.1c-3.85 0-7-3.15-7-7v-34.626c0-3.85 3.15-7 7-7h104.1c3.85 0 7 3.15 7 7v34.626z" fill="#1e1621"/>
</svg>