<svg xmlns="http://www.w3.org/2000/svg" xml:space="preserve" height="425.68px" viewbox="0 0 247.283 425.68" width="247.28px" y="0px" x="0px" xmlns:xlink="http://www.w3.org/1999/xlink">
<g>
<rect y="285.58" x="93.057" height="13.822" width="61.333" fill="#808080"/>
<path d="m72.658 224.31s-18.749 0.884-25.624-12.865c0 0-37.32 61.221-6.22 130.95 0 0 12.114-61.223 45.834-76.936l-13.99-41.14z" fill="#2c3e4f"/>
<path d="m174.84 224.31s18.749 0.884 25.623-12.865c0 0 37.321 61.221 6.22 130.95 0 0-12.113-61.223-45.832-76.936l13.99-41.14z" fill="#2c3e4f"/>
<path d="m154.44 285.58c14.893-29.768 24.709-61.176 24.709-118.86 0-91.715-55.401-166.06-55.401-166.06s-55.401 74.343-55.401 166.06c0 57.683 9.818 89.091 24.708 118.86h61.383z" fill="#e4e5d6"/>
<path d="m86.433 271.33c2.071 4.854 4.285 9.57 6.625 14.246h61.386c2.341-4.676 4.554-9.393 6.625-14.246h-74.627z" fill="#2c3e4f"/>
<path d="m160.27 70.302c-16.057-42.146-36.519-69.646-36.519-69.646s-20.464 27.502-36.517 69.646h73.037z" fill="#ed424a"/>
<path d="m117.59 276.92c0 36.156 6.163 65.477 6.163 65.477s6.161-29.318 6.161-65.477c0-36.164-2.76-65.478-6.161-65.478-3.4 0-6.16 29.32-6.16 65.48z" fill="#2c3e4f"/>
<circle cy="126.5" cx="123.75" r="26.118" fill="#ed424a"/>
<circle cy="126.5" cx="123.75" r="19.269" fill="#00536e"/>
<path d="m129.16 299.4h25.229v-13.822h-24.598c-0.12 4.79-0.34 9.41-0.63 13.82z" fill="#808080"/>
<path d="m200.47 211.44c-6.874 13.749-25.623 12.865-25.623 12.865l-0.008 0.019c-2.784 16.174-6.819 29.748-11.812 42.256 32.062 17.268 43.662 75.813 43.662 75.813 31.1-69.73-6.22-130.95-6.22-130.95z" fill="#004568"/>
<path d="m124.27 1.376c0.08 0.114 0.182 0.252 0.281 0.393-0.1-0.144-0.19-0.276-0.28-0.393z" fill="#fcfdf2"/>
<path d="m123.84 0.768c0.027 0.041 0.068 0.098 0.118 0.163-0.07-0.089-0.1-0.12-0.12-0.163z" fill="#fcfdf2"/>
<path d="m179.15 166.72c0-81.345-43.553-148.98-53.407-163.25 5.522 8.015 21.479 32.589 34.522 66.832h-36.518v30.076c14.423 0 26.117 11.693 26.117 26.118 0 14.424-11.694 26.116-26.117 26.116v58.832c3.227 0 5.869 26.345 6.137 59.888h31.18c0.668-1.566 1.316-3.15 1.957-4.748 4.99-12.508 9.026-26.082 11.812-42.256 2.79-16.12 4.32-34.81 4.32-57.61z" fill="#fcfdf2"/>
<path d="m157.71 278.81c-1.062 2.271-2.147 4.521-3.269 6.764 1.12-2.23 2.21-4.49 3.27-6.76z" fill="#fcfdf2"/>
<path d="m124.78 2.088c0.273 0.387 0.591 0.839 0.963 1.377-0.37-0.535-0.69-0.994-0.96-1.377z" fill="#fcfdf2"/>
<path d="m161.06 271.35c-0.996 2.332-2.026 4.629-3.086 6.909 1.06-2.28 2.09-4.58 3.09-6.91z" fill="#fcfdf2"/>
<path d="m125.75 3.47s-0.003-0.001-0.003-0.004c-0.372-0.539-0.689-0.991-0.962-1.377-0.081-0.114-0.155-0.22-0.226-0.319-0.101-0.141-0.201-0.279-0.281-0.393-0.134-0.189-0.237-0.33-0.32-0.445-0.05-0.065-0.091-0.123-0.118-0.163-0.052-0.069-0.084-0.114-0.084-0.114v69.646h36.519c-13.05-34.242-29.01-58.817-34.53-66.831z" fill="#ff4c48"/>
<path d="m123.75 211.44v130.95s3.765-17.909 5.408-42.997c0.289-4.408 0.507-9.033 0.633-13.822h24.652c1.121-2.242 2.207-4.492 3.27-6.764 0.088-0.184 0.174-0.365 0.262-0.555 1.061-2.281 2.09-4.578 3.086-6.91 0.002-0.008 0.006-0.012 0.008-0.018h-31.18c-0.27-33.54-2.91-59.89-6.14-59.89z" fill="#004568"/>
<path d="m149.87 126.5c0-14.425-11.694-26.118-26.117-26.118v6.848c10.642 0 19.269 8.627 19.269 19.27 0 10.642-8.627 19.269-19.269 19.269v6.848c14.43-0.01 26.12-11.7 26.12-26.12z" fill="#ff4241"/>
<path d="m143.02 126.5c0-10.643-8.627-19.27-19.269-19.27v38.539c10.64-0.01 19.27-8.63 19.27-19.27z" fill="#00536e"/>
</g>
</svg>