<svg xmlns="http://www.w3.org/2000/svg" xml:space="preserve" height="425.68px" width="247.28px" y="0px" x="0px" xmlns:xlink="http://www.w3.org/1999/xlink" viewbox="0 0 247.283 425.681">
<g>
<path d="m151.22 299.4h-54.987s-22.218 17.938-11.296 60.628c0 0 6.403-18.3 15.819-13.994 0 0-1.131 56.686 22.973 79.647 24.104-22.962 22.975-79.647 22.975-79.647 9.414-4.306 15.816 13.994 15.816 13.994 10.92-42.69-11.3-60.63-11.3-60.63z" fill="#faaf3b"/>
<path d="m145.36 299.4h-43.275s-22.739 14.116-14.145 47.707c0 0 10.294-14.399 17.702-11.007 0 0-0.89 44.607 18.08 62.676 18.969-18.068 18.08-62.676 18.08-62.676 7.409-3.393 18.077 11.007 18.077 11.007 8.6-33.59-14.52-47.71-14.52-47.71z" fill="#fbed21"/>
<path d="m137.53 299.4h-27.495s-14.444 8.97-8.985 30.312c0 0 6.54-9.147 11.245-6.996 0 0-0.564 28.344 11.49 39.822 12.053-11.479 11.486-39.822 11.486-39.822 4.707-2.151 11.486 6.996 11.486 6.996 5.47-21.34-9.22-30.31-9.22-30.31z" fill="#f1f1f1"/>
<rect y="285.58" x="93.057" height="13.823" width="61.333" fill="#808080"/>
<path d="m72.658 224.31s-18.749 0.884-25.624-12.865c0 0-37.32 61.22-6.22 130.95 0 0 12.114-61.223 45.834-76.936l-13.99-41.14z" fill="#2c3e4f"/>
<path d="m174.84 224.31s18.749 0.884 25.623-12.865c0 0 37.321 61.22 6.22 130.95 0 0-12.114-61.223-45.833-76.936l13.99-41.14z" fill="#2c3e4f"/>
<path d="m154.44 285.58c14.893-29.767 24.709-61.175 24.709-118.86 0-91.715-55.401-166.06-55.401-166.06s-55.401 74.343-55.401 166.06c0 57.683 9.818 89.091 24.708 118.86h61.383z" fill="#e4e5d6"/>
<path d="m86.433 271.33c2.071 4.854 4.285 9.57 6.625 14.245h61.387c2.34-4.675 4.553-9.392 6.624-14.245h-74.627z" fill="#2c3e4f"/>
<path d="m160.27 70.302c-16.056-42.146-36.518-69.647-36.518-69.647s-20.464 27.502-36.517 69.647h73.037z" fill="#ed424a"/>
<path d="m117.59 276.92c0 36.156 6.163 65.476 6.163 65.476s6.161-29.319 6.161-65.476c0-36.165-2.759-65.478-6.161-65.478-3.4 0-6.16 29.32-6.16 65.48z" fill="#2c3e4f"/>
<circle cy="126.5" cx="123.75" r="26.118" fill="#ed424a"/>
<circle cy="126.5" cx="123.75" r="19.269" fill="#00536e"/>
<path d="m129.16 299.4h25.229v-13.823h-24.597c-0.12 4.79-0.34 9.41-0.63 13.82z" fill="#808080"/>
<path d="m200.47 211.44c-6.874 13.749-25.623 12.865-25.623 12.865l-0.008 0.018c-2.784 16.175-6.82 29.749-11.812 42.256 32.062 17.268 43.662 75.814 43.662 75.814 31.1-69.73-6.22-130.95-6.22-130.95z" fill="#004568"/>
<path d="m124.27 1.376c0.081 0.114 0.182 0.252 0.281 0.393-0.1-0.144-0.19-0.276-0.28-0.393z" fill="#fcfdf2"/>
<path d="m123.84 0.768c0.027 0.041 0.068 0.098 0.118 0.163-0.07-0.089-0.1-0.12-0.12-0.163z" fill="#fcfdf2"/>
<path d="m179.15 166.72c0-81.345-43.553-148.98-53.407-163.25 5.522 8.015 21.479 32.589 34.523 66.832h-36.518v30.076c14.423 0 26.117 11.693 26.117 26.118 0 14.424-11.694 26.116-26.117 26.116v58.832c3.226 0 5.869 26.345 6.136 59.888h31.181c0.667-1.567 1.316-3.151 1.956-4.749 4.991-12.507 9.027-26.081 11.812-42.256 2.79-16.12 4.32-34.81 4.32-57.61z" fill="#fcfdf2"/>
<path d="m157.71 278.81c-1.062 2.271-2.147 4.521-3.269 6.763 1.12-2.23 2.21-4.49 3.27-6.76z" fill="#fcfdf2"/>
<path d="m124.78 2.088c0.272 0.387 0.59 0.839 0.962 1.377-0.37-0.535-0.69-0.994-0.96-1.377z" fill="#fcfdf2"/>
<path d="m161.06 271.35c-0.996 2.332-2.026 4.629-3.086 6.91 1.06-2.28 2.09-4.58 3.09-6.91z" fill="#fcfdf2"/>
<path d="m125.75 3.47s-0.003-0.001-0.003-0.004c-0.372-0.539-0.689-0.991-0.962-1.377-0.081-0.114-0.155-0.22-0.226-0.319-0.1-0.141-0.2-0.279-0.281-0.393-0.134-0.189-0.237-0.33-0.32-0.445-0.05-0.065-0.091-0.123-0.118-0.163-0.052-0.069-0.084-0.114-0.084-0.114v69.647h36.518c-13.05-34.243-29.01-58.818-34.53-66.832z" fill="#ff4c48"/>
<path d="m123.75 211.44v130.95s3.764-17.909 5.408-42.997c0.289-4.408 0.507-9.033 0.633-13.823h24.652c1.121-2.242 2.207-4.491 3.269-6.763 0.088-0.183 0.174-0.366 0.262-0.555 1.06-2.281 2.09-4.578 3.086-6.91 0.002-0.008 0.006-0.012 0.008-0.018h-31.181c-0.27-33.54-2.91-59.89-6.14-59.89z" fill="#004568"/>
<path d="m149.87 126.5c0-14.425-11.694-26.118-26.117-26.118v6.848c10.642 0 19.268 8.627 19.268 19.27 0 10.642-8.626 19.269-19.268 19.269v6.848c14.43-0.01 26.12-11.7 26.12-26.12z" fill="#ff4241"/>
<path d="m143.02 126.5c0-10.643-8.626-19.27-19.268-19.27v38.539c10.64-0.01 19.27-8.63 19.27-19.27z" fill="#00536e"/>
</g>
</svg>